<?xml version="1.0" encoding="utf-8"?>
<!-- Generator: Adobe Illustrator 25.0.1, SVG Export Plug-In . SVG Version: 6.00 Build 0)  -->
<svg version="1.0" id="katman_1" xmlns="http://www.w3.org/2000/svg" xmlns:xlink="http://www.w3.org/1999/xlink" x="0px" y="0px"
	 viewBox="0 0 560 400" style="enable-background:new 0 0 560 400;" xml:space="preserve">
<style type="text/css">
	.st0{fill-rule:evenodd;clip-rule:evenodd;fill:#231F20;}
</style>
<path class="st0" d="M280,278.2c-43.1,0-78-34.9-78-78s34.9-78,78-78s78,34.9,78,78S323.1,278.2,280,278.2 M488,151H356.8
	c-16.2-25.5-44.7-42.4-77.1-42.4c-32.4,0-60.9,16.9-77.1,42.4H72l13.3,13.3h110.2c-2,4.8-3.6,9.8-4.8,15h-90.4l13.3,13.3h75.1
	c-0.2,2.4-0.3,4.9-0.3,7.4c0,2.6,0.1,5.1,0.3,7.6h-60.1l13.3,13.3h48.9c1.2,5.2,2.8,10.2,4.9,15h-38.9l13.3,13.3h32.7
	c16.2,25.4,44.7,42.2,77,42.2c32.4,0,60.8-16.9,77-42.2H390l13.3-13.3h-39.6c2-4.8,3.7-9.8,4.9-15h49.6l13.3-13.3h-60.8
	c0.2-2.5,0.3-5,0.3-7.6c0-2.5-0.1-5-0.3-7.4h75.8l13.3-13.3h-91.1c-1.2-5.2-2.8-10.2-4.8-15h110.9L488,151L488,151z M315.8,209
	l0.1-30.1h8.1V220l-9.8,0.2l-16.5-29.1V220h-8.1v-41.1h9.7L315.8,209z M239.5,210.9l10.5-32h12V220h-8.8v-30.5L244,220h-9.1
	l-9.2-30.5V220h-8.8v-41.1h12L239.5,210.9z M279.9,178.9V220h-8.3v-41.1H279.9z M341.9,178.9V220h-8.3v-41.1H341.9z"/>
</svg>
